<svg width="500" height="500" viewBox="0 0 500 500" fill="none" xmlns="http://www.w3.org/2000/svg">
<rect width="500" height="500" rx="75" fill="#00BF8F"/>
<path d="M274.451 224.168C275.069 223.779 413.479 223.808 413.719 224.197C413.825 224.369 413.144 228.316 412.207 232.968C409.638 245.709 409.507 246.374 409.119 248.579C408.786 250.478 408.486 251.801 407.804 254.37C406.985 257.45 406.664 258.516 406.386 259.048C406.217 259.375 406.079 259.815 406.079 260.027C406.079 260.24 405.304 261.988 404.36 263.913C402.126 268.453 398.163 273.326 393.958 276.697C391.629 278.563 386.284 281.449 385.154 281.449C384.892 281.449 384.594 281.584 384.493 281.751C384.39 281.916 383.883 282.134 383.366 282.233C382.85 282.333 381.813 282.592 381.065 282.807C376.623 284.084 374.793 284.16 349.026 284.167C325.317 284.174 323.778 284.21 323.551 284.77C323.418 285.099 323.164 286.286 322.989 287.41C322.675 289.424 322.377 291.225 321.693 295.245C321.502 296.369 321.188 298.285 320.996 299.502C320.193 304.589 320.018 305.651 319.327 309.551C318.928 311.799 318.448 314.635 318.256 315.852C317.506 320.642 317.287 321.96 316.578 325.901C316.173 328.148 315.558 331.828 315.211 334.076C314.863 336.323 313.956 342.128 313.194 346.973C312.432 351.818 311.808 356.172 311.808 356.647C311.808 358.148 307.628 361.471 302.324 364.189C301.826 364.444 301.328 364.701 300.832 364.962C299.024 365.906 297.531 366.603 293.26 368.501C290.143 369.885 288.53 369.987 269.392 369.999C253.67 370.01 250.911 369.939 250.56 369.515C250.334 369.243 250.254 368.851 250.382 368.644C250.507 368.438 250.738 367.474 250.892 366.5C251.048 365.528 251.346 363.735 251.557 362.518C251.768 361.301 252.08 359.385 252.252 358.26C252.424 357.135 252.725 355.297 252.92 354.172C253.115 353.048 253.416 351.132 253.59 349.915C253.763 348.698 254.077 346.782 254.285 345.657C254.494 344.532 254.799 342.54 254.965 341.229C255.13 339.918 255.343 338.461 255.435 337.993C255.529 337.524 255.783 335.992 255.999 334.587C256.215 333.182 256.52 331.342 256.678 330.499C256.835 329.656 257.14 327.74 257.355 326.241C257.569 324.742 257.881 322.826 258.046 321.984C258.213 321.141 258.752 317.845 259.243 314.66C259.735 311.476 260.519 306.57 260.983 303.76C261.45 300.95 261.971 297.654 262.143 296.437C262.337 295.073 262.548 293.71 262.772 292.349C263.007 290.932 263.234 289.513 263.452 288.092C263.651 286.781 264.133 283.944 264.523 281.79C264.915 279.636 265.374 276.876 265.548 275.659C265.719 274.442 266.014 272.526 266.202 271.401C266.389 270.276 266.687 268.438 266.863 267.314C267.04 266.189 267.357 264.351 267.568 263.226C267.777 262.101 268.091 260.185 268.263 258.968C268.437 257.751 268.729 255.988 268.914 255.051C269.1 254.114 269.346 252.582 269.46 251.645C269.575 250.708 269.894 248.792 270.171 247.387C270.445 245.982 270.8 243.913 270.956 242.789C271.877 236.127 274.079 224.406 274.451 224.168Z" fill="white"/>
<path d="M442 130.768C442 131.189 441.692 132.608 441.316 133.919C440.94 135.228 440.398 137.299 440.109 138.516C439.822 139.733 439.504 141.037 439.405 141.411C439.244 142.034 439.088 142.658 438.937 143.284C438.779 143.941 438.32 145.702 437.916 147.201C437.512 148.701 437.04 150.501 436.869 151.204C436.695 151.906 436.408 153.056 436.23 153.758C436.051 154.461 435.809 155.495 435.693 156.058C435.578 156.62 435.353 157.386 435.194 157.761C435.034 158.135 434.827 158.825 434.733 159.294C434.637 159.762 434.387 160.759 434.176 161.508C433.967 162.256 433.674 163.33 433.527 163.892C433.068 165.652 430.418 171.634 429.149 173.77C426.294 178.578 421.05 184.237 416.881 187.01C414.508 188.591 409.337 190.927 406.606 191.656C405.764 191.88 404.722 192.201 404.293 192.37C403.831 192.547 350.628 192.678 276.839 192.685C172.866 192.694 150.062 192.776 149.578 193.143C149.256 193.39 148.846 194.342 148.671 195.261C148.08 198.334 147.077 204.185 146.253 209.365C146.088 210.396 145.656 212.848 145.291 214.815C144.925 216.783 144.521 219.578 144.39 221.031L144.152 223.671H197.061C242.965 223.671 250.024 223.737 250.382 224.168C250.608 224.439 250.683 224.84 250.55 225.057C250.415 225.273 250.183 226.467 250.031 227.711C249.88 228.954 249.593 230.815 249.394 231.846C248.832 234.752 247.841 240.553 246.673 247.77C246.303 250.064 243.127 268.715 241.15 280.215C239.709 288.594 239.456 290.103 238.837 294.01C238.206 297.982 237.855 300.042 237.442 302.185C237.226 303.31 236.923 304.995 236.772 305.932C236.056 310.335 235.71 312.577 235.429 314.618C235.262 315.835 234.966 317.674 234.774 318.705C234.418 320.633 234.067 322.564 233.723 324.496C232.151 333.281 231.172 336.345 227.852 342.847C225.841 346.792 223.832 349.56 219.1 354.908C217.061 357.217 210.939 361.542 207.002 363.46C200.662 366.548 199.832 366.862 194.72 368.106C187.593 369.841 189.957 369.786 122.203 369.793C87.3585 369.795 58.626 369.711 58.3432 369.607C57.9603 369.46 57.9106 369.162 58.1304 368.33C58.4105 367.265 59.3091 361.927 59.8302 358.217C59.9756 357.187 60.3372 355.042 60.6349 353.449C61.1348 350.764 63.0935 339.228 64.9441 328.072C65.4705 324.905 65.9366 322.289 66.2805 320.578C66.4701 319.642 66.775 317.878 66.9611 316.661C67.165 315.324 67.3689 313.988 67.5763 312.65C67.7305 311.664 68.0071 310.704 68.1915 310.519C68.4094 310.303 87.3897 310.216 122.19 310.273C167.521 310.346 175.882 310.287 176.034 309.89C176.296 309.207 177.321 303.879 178.957 294.691C179.403 292.184 179.816 290.084 180.275 287.983C180.469 287.104 180.626 285.84 180.626 285.173V283.961H141.761C104.578 283.961 97.1248 283.802 93.7569 282.929C89.4285 281.81 89.3947 281.799 87.3759 280.985C78.5238 277.415 72.1195 271.119 68.5762 262.502C67.3602 259.547 66.8443 257.455 66.1814 252.795C65.2862 246.516 65.8517 239.608 68.3032 226.907C68.5194 225.782 68.8419 223.944 69.0191 222.82C69.3187 220.907 69.6309 219.114 70.3824 214.985C70.5544 214.049 70.8413 212.363 71.0239 211.239C71.2047 210.114 71.5133 208.276 71.7065 207.151C71.9015 206.026 72.2135 204.188 72.4032 203.064C72.5928 201.939 72.8868 200.253 73.0552 199.317C73.392 197.461 73.6527 195.891 74.7853 188.928C76.549 178.074 78.7522 169.191 80.78 164.744C84.0574 157.553 87.429 152.465 91.9667 147.854C95.1413 144.631 101.257 139.919 104.465 138.223C105.454 137.7 106.571 137.094 106.945 136.878C107.928 136.307 112.16 134.43 113.751 133.859C117.105 132.654 123.885 131.111 129.066 130.373C130.19 130.213 201.059 130.064 286.554 130.041L442 130V130.768Z" fill="white"/>
</svg>
