<svg width="1177" height="743" viewBox="0 0 1177 743" fill="none" xmlns="http://www.w3.org/2000/svg">
<path d="M860.919 313.036C1026.61 313.125 1041.65 313.266 1042.22 314.755C1042.85 316.411 1042.51 318.474 1036.23 351C1030.18 382.266 1028.3 388.932 1021.53 403C1017.05 412.297 1013.3 417.646 1006.37 424.609C995.201 435.823 983.492 443.041 968.297 448.083L961.301 450.406L786.456 451.5L785.212 456C784.53 458.474 782.541 468.599 780.797 478.5C777.335 498.151 777.008 500.12 773.879 520C772.708 527.427 771.333 535.974 770.828 539C770.318 542.026 769.474 547.198 768.959 550.5C768.438 553.802 767.517 559.198 766.908 562.5C766.299 565.802 765.404 570.974 764.92 574C764.436 577.026 763.535 582.651 762.921 586.5C762.301 590.349 761.37 596.427 760.844 600C759.62 608.349 758.309 616.682 756.908 625C756.31 628.573 755.596 633.302 755.325 635.5C755.054 637.698 754.357 641.974 753.779 645C751.723 655.724 751.042 659.589 749.818 667.359C748.736 674.286 748.162 675.625 744.997 678.714C738.157 685.386 721.535 695.229 710.691 699.031C697.49 703.661 693.57 704 653.205 704C615.325 704 614.974 703.979 614.974 701.948C614.974 700.823 616.588 690.584 618.556 679.198C620.529 667.813 622.528 655.802 622.996 652.5C623.465 649.198 624.354 643.802 624.969 640.5C625.583 637.198 626.547 631.573 627.104 628C627.666 624.427 628.503 619.25 628.967 616.5C631.112 603.688 633.116 590.854 634.984 578C635.505 574.427 636.39 569.026 636.952 566C637.52 562.974 638.405 557.802 638.92 554.5C639.44 551.198 640.357 545.802 640.961 542.5C642.148 536.01 643.215 529.479 644.876 518.5C645.459 514.651 646.875 505.427 648.025 498C649.009 491.667 649.982 485.333 650.945 479C651.841 473.089 653.095 465.651 657.968 437.5C659.68 427.599 661.534 416.573 662.091 413C662.648 409.427 663.517 404.026 664.032 401C664.688 397.005 665.308 393.005 665.886 389C666.396 385.427 667.322 379.802 667.937 376.5C668.556 373.198 669.467 367.802 669.962 364.5C670.842 358.599 672.237 350.354 674.022 340.5C675.105 334.505 676.901 323.839 677.646 319C677.937 317.073 678.64 314.927 679.207 314.224C680.036 313.192 715.358 312.963 860.919 313.036Z" fill="white"/>
<path fill-rule="evenodd" clip-rule="evenodd" d="M642.455 275.011C642.861 274.349 719.25 274.093 868.004 274.255L1092.93 274.5L1092.39 281C1092.09 284.573 1091.37 289.75 1090.79 292.5C1090.21 295.25 1089.3 300.198 1088.78 303.5C1088.26 306.802 1087.63 310.401 1087.37 311.5C1087.12 312.599 1086.38 316.198 1085.74 319.5C1085.26 321.977 1084.63 325.127 1084.16 327.475L1083.32 331.525C1082.84 333.873 1082.22 337.023 1081.74 339.5C1081.1 342.802 1080.18 347.302 1079.69 349.5C1079.2 351.698 1076.99 362.052 1074.79 372.5C1072.58 382.948 1069.61 395.099 1068.18 399.5C1063.42 414.208 1053.21 433.443 1044.86 443.464C1039.69 449.667 1026.97 461.761 1022.2 465.011C1019.49 466.859 1017.05 468.634 1016.77 468.958C1013.2 473.166 994.081 481.552 977.293 486.281L966.298 489.375L894.168 489.745C829.471 490.078 821.974 490.281 821.428 491.703C821.095 492.578 820.35 496.484 819.777 500.396C818.559 508.698 817.227 516.984 815.774 525.25C815.092 529.161 814.441 533.078 813.827 537C813.359 540.026 812.484 545.198 811.886 548.5C810.824 554.302 810.173 558.229 807.992 572C807.43 575.573 806.477 581.427 805.873 585C805.269 588.573 804.332 594.198 803.791 597.5C803.244 600.802 802.38 605.974 801.87 609C801.365 612.026 800.48 617.427 799.907 621C799.335 624.573 798.403 630.198 797.841 633.5C795.576 646.74 794.905 650.771 793.937 657C793.38 660.573 792.479 665.75 791.938 668.5C791.396 671.25 790.5 676.651 789.959 680.5C788.84 688.395 787.128 697.619 786.3 700.271C785.738 702.057 771.875 712 769.943 712C769.366 712 768.896 712.396 768.896 712.886C768.896 713.37 768.11 714.016 767.147 714.323C766.184 714.631 762.473 716.532 758.902 718.542C748.35 724.49 738.849 729.38 731.915 732.427C706.173 743.739 713.055 743 633.277 743H566.123L566.592 739.25C567.659 730.656 571.303 706.516 575.004 683.5C576.68 673.052 578.961 658.651 580.069 651.5C581.178 644.349 582.49 636.25 582.979 633.5C583.474 630.75 584.38 625.125 584.989 621C585.598 616.875 586.494 611.25 586.973 608.5C587.457 605.75 588.331 600.463 588.919 596.75L591.054 583.25C591.642 579.536 592.512 574.25 592.985 571.5C593.459 568.75 594.307 563.573 594.864 560C597.061 545.995 598.154 539.297 599.039 534.5C599.549 531.75 600.632 525.224 601.444 520C602.855 510.963 607.04 484.937 612.537 451C613.917 442.474 615.531 432.349 616.119 428.5C616.707 424.651 617.842 417.901 618.644 413.5C620.289 404.469 623.594 384.641 625.021 375.25C626.4 366.146 627.993 356.25 629.045 350.25C630.935 339.479 631.966 333.323 632.944 327C634.147 319.271 635.125 313.542 637.999 297.5C639.176 290.901 640.524 283.364 640.992 280.755C641.455 278.141 642.117 275.558 642.455 275.011ZM1069.19 294.917C1068.49 293.776 662 293.692 660.186 294.833C659.092 295.531 652.627 329.943 649.92 349.5C649.462 352.802 648.421 358.875 647.614 363C646.802 367.125 645.865 372.75 645.526 375.5C645.193 378.25 644.469 382.75 643.923 385.5C643.381 388.25 642.523 393.427 642.013 397C641.508 400.573 640.586 406.198 639.972 409.5C639.352 412.802 638.421 418.198 637.9 421.5C637.385 424.802 636.51 430.198 635.958 433.5C635.406 436.802 634.542 442.427 634.037 446C633.527 449.573 632.179 457.677 631.028 464C629.883 470.323 628.467 478.651 627.884 482.5C627.243 486.672 626.577 490.839 625.885 495C625.229 498.995 624.61 502.995 624.037 507C623.532 510.573 622.002 520.25 620.633 528.5C619.269 536.75 616.968 551.151 615.521 560.5C614.079 569.849 612.496 579.526 612.007 582C611.523 584.474 610.606 590.099 609.977 594.5C609.347 598.901 608.451 604.526 607.987 607C607.524 609.474 606.629 614.875 605.994 619C605.359 623.125 604.615 627.625 604.339 629C604.068 630.375 603.443 634.651 602.959 638.5C602.47 642.349 601.574 648.198 600.96 651.5C600.351 654.802 599.429 660.427 598.919 664C598.409 667.573 597.524 673.198 596.951 676.5C596.379 679.802 595.494 685.198 594.989 688.5C594.484 691.802 593.568 697.427 592.948 701C592.329 704.573 591.454 709.838 590.996 712.692C590.543 715.552 589.867 718.38 589.497 718.984C589.122 719.594 589.356 720.745 590.022 721.542C591.053 722.787 599.154 722.995 645.328 722.964C701.534 722.927 706.272 722.63 715.424 718.567C727.969 712.995 732.352 710.948 737.662 708.177C739.12 707.411 740.583 706.656 742.046 705.906C757.621 697.927 769.896 688.172 769.896 683.766C769.897 682.37 771.729 669.588 773.968 655.364C776.206 641.14 778.871 624.099 779.892 617.5C780.912 610.901 782.718 600.099 783.905 593.5C785.988 581.932 786.633 578.062 788.835 564C789.397 560.427 790.808 552.099 791.979 545.5C794.01 534.052 794.525 530.932 796.883 516C797.445 512.427 798.366 506.802 798.929 503.5C800.938 491.698 801.813 486.411 802.734 480.5C803.25 477.198 803.994 473.714 804.385 472.75C805.051 471.104 809.572 471 879.201 470.979C954.877 470.959 960.249 470.734 973.295 466.984C975.492 466.354 978.537 465.593 980.052 465.302C981.571 465.01 983.06 464.37 983.362 463.886C983.659 463.396 984.534 463 985.305 463C988.622 462.999 1004.32 454.526 1011.16 449.047C1023.51 439.151 1035.15 424.844 1041.71 411.516C1044.48 405.865 1046.76 400.734 1046.76 400.109C1046.76 399.484 1047.16 398.193 1047.66 397.234C1048.48 395.672 1049.42 392.542 1051.82 383.5C1053.83 375.958 1054.71 372.073 1055.69 366.5C1056.83 360.026 1057.21 358.073 1064.75 320.667C1067.51 307.011 1069.51 295.423 1069.19 294.917Z" fill="white"/>
<path d="M1121.93 39L1121.45 42.75C1120.63 49.0833 1112.63 85.1614 1107.87 104C1104.85 115.917 1097.83 134.365 1095.69 136C1095.33 136.276 1094.47 137.568 1093.79 138.87C1088.37 149.141 1070.94 166.453 1059.64 172.786C1050.83 177.724 1047.61 179.031 1037.97 181.594C1033.46 182.792 978.287 183 668.338 183C405.974 183 302 183.313 296.825 184.109C288.08 185.464 283.109 187.881 276.961 193.776C270.048 200.401 267.736 206.87 264.186 229.5C263.025 236.969 261.703 244.411 260.214 251.828C259.631 254.755 259.151 258.531 259.151 260.208C259.151 261.89 258.719 264.896 258.188 266.886C256.366 273.74 253.144 292.511 253.149 296.261C253.16 304.656 257.919 310.417 266.648 312.594C268.308 313.005 335.406 313.38 415.771 313.422C519.309 313.479 562.21 313.817 562.984 314.583C563.76 315.364 563.619 318.177 562.469 324.583C561.589 329.489 560.449 336.089 559.934 339.25C559.423 342.411 558.57 347.589 558.039 350.75C557.368 354.75 556.701 358.75 556.04 362.75C553.651 377.161 552.88 381.76 552.047 386.5C550.09 397.62 549.028 403.792 548.091 409.5C547.549 412.802 546.659 417.974 546.112 421C544.597 429.344 542.614 441.125 536.086 480.5C532.801 500.302 528.09 528.651 525.617 543.5C523.144 558.349 520.609 573.651 519.995 577.5C518.871 584.516 516.507 596.448 514.945 603C514.487 604.927 513.806 607.849 513.437 609.5C513.062 611.151 512.447 612.948 512.072 613.5C511.692 614.052 510.755 616.526 509.984 619C508.725 623.036 503.806 633.338 499.964 639.974C496.023 646.781 487.085 657.958 479.266 665.849C460.317 684.974 435.501 697.536 406.958 702.469C399.306 703.786 375.52 703.99 225.949 704C131.242 704.005 52.6816 704.01 51.375 704.005C49.163 704 49.0489 703.739 49.7256 700.25C50.5012 696.281 51.6824 689.385 53.2754 679.5C54.3842 672.641 55.5867 665.911 57.1172 658C59.1891 647.286 62.0527 631.266 65.1553 613C68.6639 592.359 70.9174 579.833 72.4062 572.766L73.4014 568.031L372.595 567.5L378.529 564.5C386.666 560.391 392.377 554.515 394.964 547.583C396.13 544.469 397.083 541.277 397.083 540.479C397.083 539.683 397.536 537.109 398.088 534.766C398.645 532.417 399.795 526.224 400.648 521C401.497 515.776 403.813 502.5 405.797 491.5C407.775 480.501 409.409 470.137 409.42 468.464C409.456 463.808 406.042 458.026 401.231 454.599L396.885 451.5L140.711 450.401L132.866 448.151C124.985 445.891 109.842 438.932 103.912 434.849C99.8412 432.041 87.2275 419.442 84.458 415.411C80.1685 409.177 74.1041 395.719 71.9697 387.719C70.0853 380.641 69.7884 376.995 69.8457 361.5C69.9082 345.365 70.3084 341.219 73.7129 321.5C78.3876 294.432 78.8151 291.995 80.1582 284.5C80.7517 281.198 81.6624 275.802 82.1777 272.5C82.818 268.49 83.5053 264.49 84.2393 260.5C84.8535 257.198 85.817 251.573 86.374 248C88.3626 235.339 89.0392 231.37 91.2256 219.5C92.4437 212.901 93.63 206.151 93.8643 204.5C94.2651 201.646 94.8176 198.521 97.1289 186C97.8525 182.005 98.555 178.005 99.2266 174C106.884 128.068 123.855 96.7549 154.204 72.5518C164.314 64.4893 181.935 54.557 192.273 51.0986C210.79 44.9059 219.354 42.9014 235.57 40.9639C239.916 40.4483 243.701 39.792 243.982 39.5107C244.264 39.2295 441.915 39 683.211 39H1121.93Z" fill="white"/>
<path fill-rule="evenodd" clip-rule="evenodd" d="M1176.69 0V2.30176C1176.69 3.56194 1176.29 5.02546 1175.8 5.55176C1175.3 6.07259 1174.65 8.30211 1174.35 10.5C1173.52 16.5365 1172 24.026 1170.71 28.5C1170.07 30.6979 1169.15 34.3021 1168.68 36.5C1168.2 38.6979 1167.35 42.3021 1166.8 44.5C1166.25 46.6979 1165.34 50.5261 1164.79 53C1164.24 55.474 1163.06 60.1979 1162.17 63.5C1161.28 66.8021 1159.21 74.6771 1157.56 81C1155.92 87.3385 1154.25 93.6719 1152.56 100C1151.45 104.125 1149.71 110.651 1148.7 114.5C1141.33 142.505 1127.03 168.709 1109.7 185.979C1098.7 196.943 1086.71 205.427 1073.03 211.933C1068.2 214.224 1063.47 216.526 1062.52 217.052C1061.56 217.573 1059.97 218 1058.97 218C1057.97 218 1056.73 218.381 1056.2 218.839C1055.68 219.302 1052.56 220.234 1049.26 220.922C1045.96 221.604 1041.38 222.578 1039.07 223.083C1036.57 223.63 888.748 224 672.627 224C384.006 224 310.173 224.255 309.397 225.25C308.471 226.443 307.393 231.443 305.082 245.25C304.03 251.547 303.104 256.891 301.303 267C300.767 270.026 300.647 272.838 301.037 273.255C301.428 273.672 366.489 274.208 445.616 274.442C524.743 274.682 594.994 274.901 601.73 274.938L613.975 275V277.729C613.975 279.23 613.313 283.839 612.512 287.979C611.705 292.115 610.122 300.901 608.992 307.5C607.863 314.099 606.535 321.75 606.046 324.5C603.901 336.484 601.861 348.484 599.93 360.5C599.31 364.349 598.425 369.302 597.962 371.5C597.493 373.698 596.618 378.427 596.004 382C594.119 393.026 592.943 399.323 591.943 403.766C591.418 406.109 590.986 409.208 590.986 410.646C590.986 412.088 590.564 414.896 590.054 416.886C589.538 418.876 588.628 423.651 588.029 427.5C586.525 437.135 582.651 460.078 578.997 481C577.316 490.625 575.525 501.198 575.025 504.5C574.177 510.109 570.194 534.974 567.981 548.5C567.44 551.802 566.571 556.75 566.045 559.5C563.937 570.521 562.261 579.964 560.007 593.5C559.46 596.802 558.559 601.75 558.002 604.5C557.445 607.25 556.722 611.302 556.384 613.5C553.963 629.385 541.516 655.167 526.685 675C520.75 682.943 506.502 697.443 499.531 702.641C496.231 705.099 492.744 707.761 491.775 708.558C490.807 709.349 489.568 710 489.026 710C488.48 710 488.037 710.448 488.037 711C488.037 711.552 487.543 712 486.944 712C486.34 712 484.654 712.849 483.196 713.886C479.677 716.381 474.398 719.318 463.778 724.688C448.156 732.588 428.109 738.401 404.309 741.922C399.316 742.661 335.066 743 198.525 743H0L0.744141 737.75C1.23869 734.328 1.76982 730.911 2.34766 727.5C4.59653 714.417 5.36702 710.089 6.33008 705C7.4389 699.141 8.71492 691.594 10.1777 682.25C10.8336 678.162 11.5303 674.078 12.2695 670C12.9671 666.172 13.6393 662.339 14.2744 658.5C15.4769 651.13 17.038 642.234 18.2354 636C18.9537 632.177 19.6201 628.344 20.2344 624.5C20.7549 621.198 21.6093 615.802 22.1299 612.5C22.6557 609.198 25.3575 593 28.1426 576.5C30.9276 560 33.806 542.677 34.54 538L35.8779 529.5L44.3164 528.896C48.9599 528.567 120.201 528.229 202.639 528.141C285.071 528.057 352.897 527.609 353.365 527.141C353.829 526.677 354.854 522.291 355.646 517.396C356.437 512.505 357.795 504.979 358.67 500.683C359.544 496.381 360.013 492.215 359.711 491.433C359.242 490.203 343.755 490 250.13 490C140.107 490 134.193 489.833 121.221 486.317C118.196 485.494 114.375 484.469 112.725 484.031C103.276 481.526 92.8285 477.052 86.5557 472.817C84.2602 471.271 81.8971 470 81.3086 470C80.7205 470 80.2414 469.646 80.2412 469.214C80.2412 468.787 78.9451 467.662 77.3574 466.729C65.7382 459.86 48.4551 440.062 41.3701 425.5C31.7603 405.755 28.2409 390.958 27.5225 367.302C26.8301 344.552 28.366 330.594 36.3203 287.5C37.4395 281.448 38.7828 273.911 39.3086 270.75L41.2139 259.25C41.849 255.495 42.5202 251.745 43.2334 248C43.8164 244.974 44.7125 239.573 45.2227 236C46.2482 228.859 47.7892 219.495 49.3457 211C52.2036 195.349 53.1456 189.786 55.1758 176.5C56.6334 166.948 58.0338 159.276 59.1895 154.5C59.7204 152.302 60.5898 148.474 61.126 146C62.7658 138.391 68.2834 121.984 72.5625 112C77.8253 99.7055 88.6726 80.7998 91.3291 79.2285L91.5293 79.126C91.8979 78.9063 92.1937 78.28 92.2314 77.6377L92.2393 77.3623C92.2803 76.6741 92.6223 76.0039 93.0371 75.833C93.4809 75.6491 97.2445 71.4469 101.408 66.5C105.568 61.5521 111.58 55.25 114.766 52.5C118.056 49.6615 121.346 46.8281 124.636 44C126.879 42.0732 128.94 40.2403 129.217 39.917C132.975 35.5212 171.977 14 176.188 14C177.068 13.9999 178.218 13.6304 178.744 13.1826C179.265 12.7295 183.065 11.3281 187.188 10.0625C191.31 8.79705 195.583 7.39636 196.683 6.94824C197.781 6.50032 200.255 5.86458 202.181 5.53125C205.018 5.02608 207.849 4.48465 210.676 3.91699C213.424 3.36492 219.192 2.52084 223.492 2.04688C227.792 1.57292 231.583 0.916667 231.905 0.59375C232.299 0.265696 444.985 1.6868e-08 704.596 0H1176.69ZM695.184 19.1201C444.096 19.1878 235.966 19.625 232.665 20.0938C217.449 22.2604 197.537 26.7917 187.688 30.3281C183.013 32.0052 170.586 37.5153 167.697 39.1924C166.599 39.8278 163.32 41.6042 160.415 43.1406C150.993 48.1198 133.032 61.9535 123.709 71.417C110.382 84.9534 100.481 99.8907 90.8555 121C84.9001 134.057 78.4297 160.135 73.25 192C69.9235 212.443 69.158 217.052 68.1689 222.5C67.6744 225.25 66.8109 230.198 66.2539 233.5C65.6969 236.802 64.7806 242.198 64.208 245.5C63.6406 248.802 62.7341 254.198 62.2031 257.5C61.6669 260.802 60.8243 265.75 60.3193 268.5C58.1121 280.62 57.1952 285.885 56.3154 291.5C55.7949 294.802 54.848 300.198 54.2129 303.5C47.0134 340.786 45.3526 361.068 47.9814 379.5C49.9284 393.182 51.4435 399.323 55.0146 408C65.4209 433.297 84.2292 451.782 110.227 462.261C116.156 464.651 116.255 464.682 128.967 467.969C138.858 470.531 160.748 471 269.948 471H384.089V474.558C384.089 476.516 383.626 480.224 383.059 482.808C381.71 488.974 380.497 495.141 379.186 502.5C374.381 529.474 371.372 545.115 370.602 547.12C370.157 548.287 345.602 548.459 212.472 548.245C110.267 548.078 54.5248 548.333 53.8848 548.969C53.3434 549.51 52.531 552.328 52.0781 555.224C51.4691 559.151 50.8701 563.073 50.2715 567C49.7249 570.573 48.8295 575.75 48.2725 578.5C47.2626 583.521 45.8938 591.203 44.3477 600.5C38.9129 633.25 33.1604 667.12 31.6924 675C30.8178 679.677 29.756 685.974 29.3291 689C27.7986 699.891 25.1594 715.562 24.3369 718.688C23.6914 721.13 23.8375 722.005 24.9619 722.438C25.7924 722.745 110.175 722.99 212.509 722.984C411.492 722.964 404.548 723.125 425.48 718.031C440.493 714.38 442.93 713.458 461.551 704.391C473.113 698.76 491.094 686.062 497.08 679.286C510.979 663.583 516.877 655.458 522.785 643.875C532.535 624.786 535.41 615.792 540.027 590C541.037 584.328 542.068 578.661 543.114 573C543.676 569.974 544.546 564.573 545.035 561C545.863 555.01 546.877 548.427 548.98 535.5C549.423 532.75 550.313 527.802 550.948 524.5C552.161 518.208 553.193 512.161 555.046 500.5C556.863 489.031 557.607 484.599 561.839 460C567.643 426.24 576.972 371.485 578.06 364.75C581.49 343.562 584.401 326.531 586.051 318C586.634 314.974 587.477 309.51 587.92 305.859C588.368 302.208 589.05 298.703 589.445 298.067C589.835 297.432 589.616 296.255 588.95 295.458C587.901 294.193 567.168 294 432.356 294H276.971L277.669 286.25C278.054 281.984 279.241 273.776 280.313 268C281.386 262.224 282.656 255.026 283.14 252C285.56 236.792 288.507 219.615 290.24 210.594C290.756 207.896 291.958 205.099 292.905 204.375C294.326 203.297 361.299 203.057 666.651 203.031C883.359 203.01 1039.61 202.625 1040.96 202.104C1042.22 201.61 1045.29 200.667 1047.76 200.011C1055.78 197.87 1070.97 191.011 1077.94 186.37C1090.18 178.229 1105.58 161.615 1113.96 147.5C1117.69 141.229 1125.47 123.667 1126.82 118.5C1127.25 116.849 1128.11 113.698 1128.73 111.5C1129.35 109.302 1130.08 106.375 1130.36 105C1130.64 103.625 1131.25 101.599 1131.72 100.5C1132.18 99.401 1132.85 97.151 1133.18 95.5C1133.52 93.849 1134.23 90.8125 1134.76 88.75C1135.28 86.6875 1136.12 83.3125 1136.63 81.25C1137.14 79.1875 1138.53 73.901 1139.71 69.5C1140.9 65.099 1142.25 59.9271 1142.71 58C1143.15 56.1615 1143.61 54.3281 1144.08 52.5C1144.38 51.401 1145.31 47.5729 1146.15 44C1147 40.4271 1148.59 34.3486 1149.7 30.5049C1150.8 26.656 1151.71 22.4892 1151.71 21.2549V19L695.184 19.1201Z" fill="white"/>
</svg>
