<svg width="1128" height="705" viewBox="0 0 1128 705" fill="none" xmlns="http://www.w3.org/2000/svg">
<path d="M635.685 276.458C637.499 275.317 1043.99 275.401 1044.69 276.542C1045.01 277.048 1043.01 288.636 1040.25 302.292C1032.71 339.698 1032.32 341.651 1031.18 348.125C1030.21 353.698 1029.33 357.583 1027.32 365.125C1024.92 374.167 1023.97 377.297 1023.16 378.859C1022.66 379.818 1022.26 381.109 1022.26 381.734C1022.26 382.359 1019.98 387.49 1017.21 393.141C1010.65 406.469 999.008 420.776 986.66 430.672C979.82 436.151 964.12 444.624 960.803 444.625C960.033 444.625 959.158 445.021 958.861 445.511C958.559 445.995 957.07 446.635 955.55 446.927C954.036 447.218 950.99 447.979 948.794 448.609C935.748 452.359 930.376 452.584 854.7 452.604C785.07 452.625 780.55 452.729 779.883 454.375C779.493 455.339 778.748 458.823 778.233 462.125C777.312 468.036 776.437 473.323 774.427 485.125C773.865 488.427 772.944 494.052 772.382 497.625C770.023 512.557 769.508 515.677 767.478 527.125C766.307 533.724 764.896 542.052 764.334 545.625C762.132 559.687 761.486 563.557 759.404 575.125C758.217 581.724 756.411 592.526 755.39 599.125C754.37 605.724 751.705 622.765 749.466 636.989C747.228 651.213 745.395 663.995 745.395 665.391C745.395 669.797 733.12 679.552 717.545 687.531C716.082 688.281 714.618 689.036 713.161 689.802C707.851 692.573 703.468 694.62 690.923 700.192C681.771 704.255 677.034 704.552 620.827 704.589C574.653 704.62 566.552 704.412 565.522 703.167C564.855 702.37 564.621 701.219 564.996 700.609C565.366 700.005 566.042 697.177 566.495 694.317C566.953 691.463 567.828 686.198 568.447 682.625C569.067 679.052 569.984 673.427 570.488 670.125C570.993 666.823 571.878 661.427 572.45 658.125C573.023 654.823 573.908 649.198 574.418 645.625C574.928 642.052 575.85 636.427 576.459 633.125C577.073 629.823 577.969 623.974 578.458 620.125C578.942 616.276 579.567 612 579.838 610.625C580.114 609.25 580.858 604.75 581.493 600.625C582.128 596.5 583.023 591.099 583.487 588.625C583.95 586.151 584.846 580.526 585.476 576.125C586.106 571.724 587.022 566.099 587.506 563.625C587.995 561.151 589.578 551.474 591.02 542.125C592.467 532.776 594.768 518.375 596.132 510.125C597.501 501.875 599.031 492.198 599.536 488.625C600.109 484.62 600.728 480.62 601.384 476.625C602.076 472.464 602.743 468.297 603.383 464.125C603.966 460.276 605.382 451.948 606.528 445.625C607.678 439.302 609.026 431.198 609.536 427.625C610.041 424.052 610.905 418.427 611.457 415.125C612.009 411.823 612.884 406.427 613.4 403.125C613.92 399.823 614.851 394.427 615.471 391.125C616.085 387.823 617.007 382.198 617.512 378.625C618.022 375.052 618.881 369.875 619.422 367.125C619.969 364.375 620.692 359.875 621.026 357.125C621.364 354.375 622.301 348.75 623.113 344.625C623.92 340.5 624.961 334.427 625.419 331.125C628.126 311.568 634.592 277.156 635.685 276.458Z" fill="white"/>
<path d="M1127.75 2.25488C1127.75 3.48922 1126.85 7.65603 1125.74 11.5049C1124.64 15.3486 1123.05 21.4271 1122.2 25C1121.35 28.5729 1120.42 32.401 1120.13 33.5C1119.66 35.3281 1119.2 37.1615 1118.76 39C1118.29 40.9271 1116.94 46.099 1115.76 50.5C1114.57 54.901 1113.19 60.1875 1112.68 62.25C1112.17 64.3125 1111.33 67.6875 1110.81 69.75C1110.28 71.8125 1109.57 74.849 1109.23 76.5C1108.89 78.151 1108.23 80.401 1107.76 81.5C1107.29 82.5989 1106.68 84.625 1106.41 86C1106.13 87.375 1105.39 90.3021 1104.77 92.5C1104.16 94.6979 1103.3 97.8489 1102.87 99.5C1101.52 104.667 1093.74 122.229 1090.01 128.5C1081.62 142.615 1066.23 159.229 1053.98 167.37C1047.01 172.011 1031.83 178.87 1023.8 181.011C1021.33 181.667 1018.27 182.61 1017.01 183.104C1015.66 183.625 859.405 184.01 642.697 184.031C337.345 184.057 270.372 184.297 268.951 185.375C268.004 186.099 266.802 188.896 266.286 191.594C264.553 200.615 261.606 217.792 259.186 233C258.702 236.026 257.432 243.224 256.36 249C255.287 254.776 254.1 262.984 253.715 267.25L253.017 275H408.402C543.214 275 563.947 275.193 564.996 276.458C565.662 277.255 565.881 278.432 565.491 279.067C565.096 279.703 564.414 283.208 563.966 286.859C563.524 290.51 562.68 295.974 562.097 299C560.447 307.531 557.536 324.562 554.106 345.75C553.018 352.485 543.689 407.24 537.885 441C533.653 465.599 532.909 470.031 531.092 481.5C529.239 493.161 528.207 499.208 526.994 505.5C526.359 508.802 525.469 513.75 525.027 516.5C522.923 529.427 521.909 536.01 521.081 542C520.592 545.573 519.723 550.974 519.16 554C518.114 559.661 517.083 565.328 516.073 571C511.456 596.792 508.582 605.786 498.831 624.875C492.923 636.458 487.025 644.583 473.126 660.286C467.14 667.062 449.159 679.76 437.597 685.391C418.976 694.458 416.54 695.38 401.527 699.031C380.594 704.125 387.538 703.964 188.555 703.984C86.2215 703.99 1.83844 703.745 1.00797 703.438C-0.11647 703.005 -0.262542 702.13 0.382968 699.688C1.20549 696.562 3.84468 680.891 5.37516 670C5.80203 666.974 6.86388 660.677 7.73844 656C9.20645 648.12 14.9589 614.25 20.3937 581.5C21.9398 572.203 23.3086 564.521 24.3185 559.5C24.8755 556.75 25.7709 551.573 26.3175 548C26.9162 544.073 27.5151 540.151 28.1242 536.224C28.5771 533.328 29.3894 530.51 29.9308 529.969C30.5708 529.333 86.3132 529.078 188.518 529.245C321.648 529.459 346.203 529.287 346.648 528.12C347.418 526.115 350.427 510.474 355.232 483.5C356.543 476.141 357.756 469.974 359.105 463.808C359.672 461.224 360.135 457.516 360.135 455.558V452H245.994C136.794 452 114.904 451.531 105.013 448.969C92.3008 445.682 92.2016 445.651 86.2726 443.261C60.2752 432.782 41.467 414.297 31.0607 389C27.4896 380.323 25.9744 374.182 24.0275 360.5C21.3986 342.068 23.0594 321.786 30.2589 284.5C30.894 281.198 31.8409 275.802 32.3615 272.5C33.2413 266.885 34.1582 261.62 36.3654 249.5C36.8703 246.75 37.713 241.802 38.2492 238.5C38.7802 235.198 39.6866 229.802 40.2541 226.5C40.8267 223.198 41.743 217.802 42.3 214.5C42.857 211.198 43.7205 206.25 44.215 203.5C45.2041 198.052 45.9696 193.443 49.2961 173C54.4757 141.135 60.9462 115.057 66.9015 102C76.5269 80.8907 86.4285 65.9534 99.755 52.417C109.078 42.9535 127.039 29.1198 136.461 24.1406C139.366 22.6042 142.645 20.8278 143.743 20.1924C146.632 18.5153 159.059 13.0052 163.734 11.3281C173.583 7.79167 193.495 3.26042 208.711 1.09375C212.012 0.625001 420.142 0.187825 671.23 0.120117L1127.75 0V2.25488Z" fill="white"/>
</svg>
